<?xml version="1.0" encoding="UTF-8" standalone="no"?>
<!-- Created with Inkscape (http://www.inkscape.org/) -->

<svg
   xmlns:dc="http://purl.org/dc/elements/1.1/"
   xmlns:cc="http://creativecommons.org/ns#"
   xmlns:rdf="http://www.w3.org/1999/02/22-rdf-syntax-ns#"
   xmlns:svg="http://www.w3.org/2000/svg"
   xmlns="http://www.w3.org/2000/svg"
   xmlns:sodipodi="http://sodipodi.sourceforge.net/DTD/sodipodi-0.dtd"
   xmlns:inkscape="http://www.inkscape.org/namespaces/inkscape"
   width="64px"
   height="64px"
   id="svg3906"
   version="1.1"
   inkscape:version="0.47 r22583"
   sodipodi:docname="chance_of_storm.svg">
  <defs
     id="defs3908">
    <inkscape:perspective
       sodipodi:type="inkscape:persp3d"
       inkscape:vp_x="0 : 32 : 1"
       inkscape:vp_y="0 : 1000 : 0"
       inkscape:vp_z="64 : 32 : 1"
       inkscape:persp3d-origin="32 : 21.333333 : 1"
       id="perspective3914" />
    <inkscape:perspective
       id="perspective3898"
       inkscape:persp3d-origin="0.5 : 0.33333333 : 1"
       inkscape:vp_z="1 : 0.5 : 1"
       inkscape:vp_y="0 : 1000 : 0"
       inkscape:vp_x="0 : 0.5 : 1"
       sodipodi:type="inkscape:persp3d" />
  </defs>
  <sodipodi:namedview
     id="base"
     pagecolor="#ffffff"
     bordercolor="#666666"
     borderopacity="1.0"
     inkscape:pageopacity="0.0"
     inkscape:pageshadow="2"
     inkscape:zoom="3.8890873"
     inkscape:cx="31.277911"
     inkscape:cy="30.817016"
     inkscape:current-layer="layer1"
     showgrid="true"
     inkscape:document-units="px"
     inkscape:grid-bbox="true"
     inkscape:window-width="655"
     inkscape:window-height="481"
     inkscape:window-x="852"
     inkscape:window-y="368"
     inkscape:window-maximized="0" />
  <metadata
     id="metadata3911">
    <rdf:RDF>
      <cc:Work
         rdf:about="">
        <dc:format>image/svg+xml</dc:format>
        <dc:type
           rdf:resource="http://purl.org/dc/dcmitype/StillImage" />
        <dc:title />
      </cc:Work>
    </rdf:RDF>
  </metadata>
  <g
     id="layer1"
     inkscape:label="Layer 1"
     inkscape:groupmode="layer">
    <path
       d="m 39.287441,14.022785 c 1.544249,-0.218224 3.503724,-0.324151 5.021939,0 0.602737,0.128689 1.113862,0.360876 1.656293,0.524164 1.490862,0.44677 2.475873,1.183697 3.468792,2.097874 0.562533,0.516879 0.863738,0.826159 1.294124,1.477798 0.345692,0.525076 0.665351,1.043777 0.880545,1.812573 0.183555,0.658619 0.30351,1.17793 0.310431,2.002569 2.665691,0.278016 4.747427,2.122155 4.582654,5.25227 -0.137091,3.585081 -2.574406,4.274357 -3.576552,4.305921 -3.130679,0.03796 -7.333038,-0.02185 -10.893775,-0.02185 l -25.109692,0 c -1.712316,0 -3.463189,0.169054 -5.021278,0 -0.152249,-0.01729 -0.387545,-0.06224 -0.541112,-0.09196 C 10.879004,31.289262 10.51156,31.207315 9.9856069,30.997587 7.0295871,29.816625 4.7695663,25.984182 6.6720301,22.461927 6.7919846,22.240062 7.30278,21.504045 7.4131771,21.349253 7.5364276,21.177469 8.5939377,20.22171 9.467233,19.744589 c 0.3117492,-0.170272 1.278635,-0.556641 1.34685,-0.572119 0.578681,-0.130512 1.135611,-0.142958 1.759769,-0.191518 -0.154225,-1.776149 0.227057,-3.767794 0.776738,-5.196423 0.15258,-0.397297 0.43566,-0.717808 0.517386,-1.097196 1.012693,-1.745798 2.359213,-3.1109956 3.830963,-4.147789 0.886146,-0.6243245 1.86951,-1.1490968 2.899008,-1.5266649 0.706874,-0.2579844 1.882362,-0.7065757 2.951077,-0.9056787 0.968204,-0.1796793 2.097555,-0.3293109 3.262167,-0.2376499 5.944994,0.4646768 9.860321,3.3064555 12.060693,7.2949035 0.226398,0.4149 0.218489,0.625839 0.415557,0.858331"
       style="fill:#f2f2f2;fill-opacity:1;fill-rule:evenodd;stroke:none"
       id="path2893" />
    <path
       d="m 34.353918,33.047385 4.762916,0 c -0.357557,1.19796 -0.636681,2.296368 -1.119794,3.684936 -0.214533,0.610967 -0.389852,1.263214 -0.72533,1.667492 -1.361021,1.644427 -4.560574,0.59458 -4.141722,-1.764312 0.229693,-1.289926 0.839681,-2.214727 1.068384,-3.445769 0.02966,-0.06829 0.08074,-0.115638 0.155546,-0.142347"
       style="fill:#79dbea;fill-opacity:1;fill-rule:evenodd;stroke:none"
       id="path2897" />
    <path
       d="m 27.742088,33.047385 4.762916,0 c -1.169227,3.738048 -1.59401,4.216689 -2.78993,7.931063 1.664532,-0.381212 3.932133,-1.435912 5.280632,-0.237042 0.313397,0.277409 0.71017,0.890201 0.67359,1.572494 -0.03329,0.555429 -0.353272,1.207069 -0.570772,1.811661 -1.019612,2.839051 -1.369589,4.540842 -2.446872,7.559261 -0.388535,1.088394 -0.752682,2.77865 -1.397931,3.33681 -1.405841,1.220723 -3.987826,0.218224 -4.037589,-1.475978 -0.02109,-0.725088 0.452137,-1.563084 0.672603,-2.19439 0.73851,-2.110922 0.858794,-3.12526 1.567317,-5.175177 -1.084534,0.04369 -2.155555,0.956062 -3.468792,0.953028 -1.39793,-0.0014 -2.716771,-1.021316 -2.433032,-2.622342 0.101174,-0.569085 0.410942,-1.197355 0.621522,-1.811661 1.385079,-4.03974 2.087669,-5.589473 3.463189,-9.50538 -0.0023,-0.08132 0.03888,-0.122923 0.103149,-0.142347"
       style="fill:#efe315;fill-opacity:1;fill-rule:evenodd;stroke:none"
       id="path2901" />
    <path
       d="m 21.157313,33.047385 c 1.571931,0.03155 3.277328,-0.06343 4.762917,0.04734 -0.617897,1.799826 -1.312579,3.762029 -1.967055,5.626197 -0.222113,0.629787 -0.373046,1.339094 -0.672931,1.859009 -1.119135,1.933371 -4.807734,1.103875 -4.349007,-1.476583 0.15983,-0.902341 0.673591,-1.946724 1.034772,-2.955597 0.374363,-1.046205 0.733567,-2.084216 1.034772,-2.958025 0.02966,-0.06828 0.08107,-0.115639 0.156532,-0.142347"
       style="fill:#79dbea;fill-opacity:1;fill-rule:evenodd;stroke:none"
       id="path2905" />
  </g>
</svg>
