<?xml version="1.0" encoding="UTF-8" standalone="no"?>
<!-- Created with Inkscape (http://www.inkscape.org/) -->

<svg
   xmlns:dc="http://purl.org/dc/elements/1.1/"
   xmlns:cc="http://creativecommons.org/ns#"
   xmlns:rdf="http://www.w3.org/1999/02/22-rdf-syntax-ns#"
   xmlns:svg="http://www.w3.org/2000/svg"
   xmlns="http://www.w3.org/2000/svg"
   xmlns:sodipodi="http://sodipodi.sourceforge.net/DTD/sodipodi-0.dtd"
   xmlns:inkscape="http://www.inkscape.org/namespaces/inkscape"
   width="64px"
   height="64px"
   id="svg3407"
   version="1.1"
   inkscape:version="0.47 r22583"
   sodipodi:docname="fog.svg">
  <defs
     id="defs3409">
    <inkscape:perspective
       sodipodi:type="inkscape:persp3d"
       inkscape:vp_x="0 : 32 : 1"
       inkscape:vp_y="0 : 1000 : 0"
       inkscape:vp_z="64 : 32 : 1"
       inkscape:persp3d-origin="32 : 21.333333 : 1"
       id="perspective3415" />
    <inkscape:perspective
       id="perspective3425"
       inkscape:persp3d-origin="0.5 : 0.33333333 : 1"
       inkscape:vp_z="1 : 0.5 : 1"
       inkscape:vp_y="0 : 1000 : 0"
       inkscape:vp_x="0 : 0.5 : 1"
       sodipodi:type="inkscape:persp3d" />
  </defs>
  <sodipodi:namedview
     id="base"
     pagecolor="#ffffff"
     bordercolor="#666666"
     borderopacity="1.0"
     inkscape:pageopacity="0.0"
     inkscape:pageshadow="2"
     inkscape:zoom="7.26"
     inkscape:cx="30.390388"
     inkscape:cy="31.859353"
     inkscape:current-layer="layer1"
     showgrid="true"
     inkscape:document-units="px"
     inkscape:grid-bbox="true"
     inkscape:window-width="627"
     inkscape:window-height="712"
     inkscape:window-x="389"
     inkscape:window-y="156"
     inkscape:window-maximized="0" />
  <metadata
     id="metadata3412">
    <rdf:RDF>
      <cc:Work
         rdf:about="">
        <dc:format>image/svg+xml</dc:format>
        <dc:type
           rdf:resource="http://purl.org/dc/dcmitype/StillImage" />
        <dc:title />
      </cc:Work>
    </rdf:RDF>
  </metadata>
  <g
     id="layer1"
     inkscape:label="Layer 1"
     inkscape:groupmode="layer">
    <path
       d="m 62.59645,41.35216 c -0.527429,-1.135985 -1.609125,-1.165411 -2.563435,-1.192521 -0.381796,-0.01124 -0.776831,-0.02217 -1.186179,-0.08727 -1.283864,-0.204647 -2.364843,-0.793138 -3.410398,-1.361133 -0.596131,-0.324329 -1.212658,-0.65924 -1.852444,-0.913813 -1.526109,-0.607005 -3.031465,-0.914476 -4.49746,-0.914476 -1.92043,0.0052 -3.409326,0.490961 -4.492452,0.913156 -0.708845,0.27639 -1.305333,0.641387 -1.881785,0.99382 -0.488783,0.298214 -0.950374,0.580556 -1.474225,0.811654 -0.917454,0.405002 -2.236743,0.637423 -3.619724,0.637423 -1.439159,0 -2.771687,-0.24796 -3.655507,-0.678749 -0.08588,-0.04198 -0.20038,-0.132906 -0.311304,-0.221512 -0.111284,-0.08828 -0.226502,-0.180184 -0.357822,-0.262174 -2.57238,-1.615706 -5.023459,-2.319249 -7.465949,-2.140389 -1.643834,0.11869 -2.872235,0.399712 -4.239829,0.967045 -0.687018,0.286311 -1.292095,0.630479 -1.877491,0.963405 -1.155049,0.658249 -2.246047,1.279472 -3.882723,1.405105 -0.308084,0.02414 -0.610444,0.03637 -0.90028,0.03637 l -7.16e-4,0 c -1.673173,0 -2.824643,-0.390122 -3.819389,-0.811655 C 10.719817,39.331793 10.365933,39.113588 9.991651,38.88216 9.5823027,38.629903 9.1589996,38.368387 8.6609125,38.160432 7.7409519,37.776921 6.4542256,37.53855 5.3013236,37.53855 c -1.9018214,0 -3.149188,0.607665 -3.5130927,1.711252 -0.411137,1.245418 0.1857091,2.940471 1.1611312,3.297533 0.4147149,0.151753 1.263826,0.397068 1.9011067,0.450297 1.6864133,0.138525 2.4056357,0.397064 3.7109689,0.865212 l 0.056535,0.01983 c 0.4279544,0.153736 0.8494679,0.324331 1.2960299,0.504515 1.3200034,0.533279 2.6854524,1.08474 4.2036884,1.172024 0.250119,0.01422 0.494868,0.02049 0.735683,0.02049 2.174482,0 4.185797,-0.552125 6.148808,-1.689103 0.202527,-0.117037 0.405412,-0.249283 0.612233,-0.384172 0.339573,-0.220849 0.690237,-0.450295 1.058078,-0.616263 0.992239,-0.447981 2.345164,-0.705528 3.710969,-0.705528 1.347198,0 2.613172,0.24895 3.564619,0.701229 0.288405,0.136875 0.545678,0.32334 0.817622,0.521048 0.203244,0.147122 0.412926,0.299535 0.640144,0.43145 1.269193,0.739251 3.299831,1.722164 6.265815,1.722164 l 0.08909,-5.31e-4 c 1.453113,-0.009 2.985665,-0.306808 4.43198,-0.860255 0.714212,-0.273747 1.312132,-0.648332 1.890371,-1.010022 0.470536,-0.294246 0.91495,-0.572621 1.416974,-0.799423 0.937494,-0.423514 2.032428,-0.638414 3.253673,-0.638414 1.673175,0 3.446181,0.415913 4.864586,1.141608 0.264073,0.134889 0.545678,0.305485 0.843743,0.48633 0.240457,0.145801 0.484849,0.293584 0.726737,0.426823 0.944291,0.521707 2.728033,1.049036 4.311036,1.049036 0.999754,0 1.79698,-0.208948 2.371642,-0.622216 0.980431,-0.705857 1.292094,-2.159565 0.724947,-3.381178"
       style="fill:#f2f2f2;fill-opacity:1;fill-rule:nonzero;stroke:none"
       id="path2953" />
    <path
       d="m 62.734191,49.102884 c -0.527429,-1.135986 -1.609125,-1.166071 -2.563435,-1.192521 -0.381796,-0.01123 -0.776831,-0.02218 -1.186179,-0.08727 -1.283864,-0.205315 -2.364843,-0.793143 -3.410398,-1.361138 -0.596131,-0.324331 -1.212658,-0.659904 -1.852444,-0.913815 -1.526109,-0.607006 -3.031465,-0.914474 -4.49746,-0.914474 -1.92043,0.0047 -3.409326,0.490959 -4.492452,0.913153 -0.708845,0.276391 -1.305333,0.64139 -1.881785,0.99316 -0.488783,0.298876 -0.950374,0.581219 -1.474225,0.812318 -0.917454,0.404999 -2.236743,0.636759 -3.619724,0.636759 -1.439159,0 -2.771687,-0.247298 -3.655507,-0.678086 -0.08588,-0.04198 -0.20038,-0.133569 -0.311304,-0.221511 -0.111284,-0.08828 -0.226502,-0.180184 -0.357822,-0.262838 -2.57238,-1.615044 -5.023459,-2.318589 -7.465949,-2.139727 -1.643834,0.11869 -2.872235,0.39905 -4.239829,0.967044 -0.687018,0.28565 -1.292095,0.629817 -1.877491,0.963406 -1.155049,0.658249 -2.246047,1.279472 -3.882723,1.405105 -0.308084,0.02414 -0.610444,0.03637 -0.90028,0.03637 l -7.16e-4,0 c -1.673173,0 -2.824643,-0.390785 -3.819389,-0.812318 C 10.857558,47.082523 10.503674,46.864318 10.129392,46.63289 9.7200437,46.380632 9.2967406,46.119118 8.7986535,45.911161 7.8786929,45.526989 6.5919666,45.289278 5.4390646,45.289278 c -1.9018214,0 -3.149188,0.607007 -3.5130927,1.711254 -0.411137,1.244759 0.1857091,2.939811 1.1611312,3.297536 0.4147149,0.151751 1.263826,0.397064 1.9011067,0.450295 1.6864133,0.138525 2.4056357,0.396403 3.7109689,0.864552 l 0.056535,0.02049 c 0.4279544,0.153734 0.8494679,0.323671 1.2960303,0.504515 1.320003,0.533279 2.685452,1.08474 4.203688,1.172022 0.250119,0.01422 0.494868,0.02049 0.735683,0.02049 2.174482,0 4.185797,-0.552124 6.148808,-1.689102 0.202527,-0.117699 0.405412,-0.249282 0.612233,-0.384172 0.339573,-0.22151 0.690237,-0.450296 1.058078,-0.616264 0.992239,-0.448639 2.345164,-0.705527 3.710969,-0.705527 1.347198,0 2.613172,0.248621 3.564619,0.70123 0.288405,0.136874 0.545678,0.323338 0.817622,0.521046 0.203244,0.147123 0.412926,0.298874 0.640144,0.431451 1.269193,0.73925 3.299831,1.722163 6.265815,1.722163 l 0.08909,-7.95e-4 c 1.453113,-0.009 2.985665,-0.306808 4.43198,-0.860255 0.714212,-0.273747 1.312132,-0.648332 1.890371,-1.010683 0.470536,-0.293585 0.91495,-0.571962 1.416974,-0.798762 0.937494,-0.424175 2.032428,-0.639075 3.253673,-0.639075 1.673175,0 3.446181,0.416573 4.864586,1.142269 0.264073,0.134889 0.545678,0.305486 0.843743,0.485671 0.240457,0.14646 0.484849,0.294245 0.726737,0.427481 0.944291,0.521708 2.728033,1.049037 4.311036,1.049037 0.999754,0 1.79698,-0.208948 2.371642,-0.622215 0.980431,-0.705858 1.292094,-2.159565 0.724947,-3.381179"
       style="fill:#f2f2f2;fill-opacity:1;fill-rule:nonzero;stroke:none"
       id="path2957" />
    <path
       d="m 9.3973808,36.22912 c 0.6297662,0.276044 1.1350092,0.603131 1.5883692,0.896884 0.327408,0.212155 0.609371,0.395142 0.86736,0.510422 0.755004,0.336114 1.677111,0.694451 3.074404,0.694451 0.238311,0 0.01558,0.02726 0.751427,-0.03229 0.73586,-0.05955 2.041372,-0.594449 3.09301,-1.223275 0.603645,-0.361116 1.287444,-0.7698 2.08288,-1.117719 1.550442,-0.6757 2.996041,-1.023275 4.831666,-1.162859 0.293058,-0.02257 0.590049,-0.03402 0.882747,-0.03402 2.573095,0 5.101463,0.843062 7.727874,2.57537 0.215051,0.141322 0.382512,0.281254 0.524567,0.39931 0.02076,0.0177 0.04187,0.03543 0.06226,0.05242 0.510612,0.234725 1.468142,0.470491 2.734473,0.470491 1.108532,0 2.173051,-0.186807 2.848619,-0.500005 0.410421,-0.19028 0.801162,-0.440629 1.258817,-0.734037 0.614379,-0.394793 1.311058,-0.842366 2.172693,-1.194801 1.237348,-0.50695 2.944157,-1.089595 5.182689,-1.095843 l 0.0029,0 0.0026,0 c 1.703589,0 3.454411,0.370835 5.205232,1.102094 0.743912,0.310767 1.438801,0.707645 2.057118,1.060772 0.878451,0.501395 1.711819,0.972926 2.593491,1.16772 0.552835,-0.644797 0.945007,-1.427097 1.154332,-2.32398 0.834799,-3.564617 -1.545789,-6.510479 -4.768331,-6.91326 -0.09912,-2.196896 -0.762876,-3.950386 -1.94333,-5.370537 -2.321904,-2.792736 -7.112421,-4.528864 -11.775554,-3.598993 -1.018361,-2.545857 -2.691177,-4.670184 -4.886414,-6.284782 -2.511264,-1.846547 -6.015769,-3.303504 -10.42127,-2.971209 -3.660158,0.276739 -6.990763,1.72189 -9.243608,3.828508 -2.748428,2.568775 -4.798388,6.041726 -4.416234,11.08344 -4.1106562,0.235766 -6.6365199,2.726762 -7.1825559,6.170544 -0.2182713,1.377791 -0.017179,2.650373 0.4465622,3.757328 1.2323375,0.07152 2.500815,0.353823 3.491266,0.787855"
       style="fill:#f2f2f2;fill-opacity:1;fill-rule:evenodd;stroke:none"
       id="path2961"
       sodipodi:nodetypes="cssszscsscscsssscccsscccscccccscc" />
  </g>
</svg>
