<?xml version="1.0" encoding="UTF-8" standalone="no"?>
<!-- Created with Inkscape (http://www.inkscape.org/) -->

<svg
   xmlns:dc="http://purl.org/dc/elements/1.1/"
   xmlns:cc="http://creativecommons.org/ns#"
   xmlns:rdf="http://www.w3.org/1999/02/22-rdf-syntax-ns#"
   xmlns:svg="http://www.w3.org/2000/svg"
   xmlns="http://www.w3.org/2000/svg"
   xmlns:sodipodi="http://sodipodi.sourceforge.net/DTD/sodipodi-0.dtd"
   xmlns:inkscape="http://www.inkscape.org/namespaces/inkscape"
   width="64px"
   height="64px"
   id="svg3559"
   version="1.1"
   inkscape:version="0.47 r22583"
   sodipodi:docname="mostly_cloudy.svg">
  <defs
     id="defs3561">
    <inkscape:perspective
       sodipodi:type="inkscape:persp3d"
       inkscape:vp_x="0 : 32 : 1"
       inkscape:vp_y="0 : 1000 : 0"
       inkscape:vp_z="64 : 32 : 1"
       inkscape:persp3d-origin="32 : 21.333333 : 1"
       id="perspective3567" />
    <inkscape:perspective
       id="perspective3577"
       inkscape:persp3d-origin="0.5 : 0.33333333 : 1"
       inkscape:vp_z="1 : 0.5 : 1"
       inkscape:vp_y="0 : 1000 : 0"
       inkscape:vp_x="0 : 0.5 : 1"
       sodipodi:type="inkscape:persp3d" />
  </defs>
  <sodipodi:namedview
     id="base"
     pagecolor="#ffffff"
     bordercolor="#666666"
     borderopacity="1.0"
     inkscape:pageopacity="0.0"
     inkscape:pageshadow="2"
     inkscape:zoom="5.92"
     inkscape:cx="25.522584"
     inkscape:cy="32"
     inkscape:current-layer="layer1"
     showgrid="true"
     inkscape:document-units="px"
     inkscape:grid-bbox="true"
     inkscape:window-width="655"
     inkscape:window-height="764"
     inkscape:window-x="514"
     inkscape:window-y="166"
     inkscape:window-maximized="0" />
  <metadata
     id="metadata3564">
    <rdf:RDF>
      <cc:Work
         rdf:about="">
        <dc:format>image/svg+xml</dc:format>
        <dc:type
           rdf:resource="http://purl.org/dc/dcmitype/StillImage" />
        <dc:title />
      </cc:Work>
    </rdf:RDF>
  </metadata>
  <g
     id="layer1"
     inkscape:label="Layer 1"
     inkscape:groupmode="layer">
    <path
       d="m 58.813787,22.875299 c 0.97251,0.201139 1.726847,0.423935 2.288918,0.971645 2.0342,1.983514 0.845151,5.725211 -1.840024,6.063908 -1.152506,0.145156 -2.48473,0 -3.769503,0 l -11.262689,0 c -1.102051,-2.319679 -2.784719,-4.040167 -4.846736,-5.369636 0.203175,-3.277538 2.7779,-4.797172 6.192597,-4.304881 1.10696,-2.452456 2.894079,-4.261559 6.013149,-4.536115 0.308443,-0.027 0.652067,-0.0225 0.942239,0 3.653325,0.286372 6.529675,3.057551 6.282049,7.175079"
       style="fill:#f2f2f2;fill-opacity:1;fill-rule:evenodd;stroke:none"
       id="path2989" />
    <path
       d="m 43.422424,31.669796 c 3.553784,-0.753629 7.205197,0.652918 8.974589,2.915772 0.899968,1.150557 1.405587,2.571452 1.481129,4.351014 2.456094,0.32632 4.271029,2.713232 3.634508,5.600875 -0.437986,1.988578 -1.904388,3.292447 -4.128127,3.471359 -8.679507,-0.168785 -18.360981,-0.09226 -27.373204,-0.09226 -1.315589,0 -1.927294,0.0526 -3.222703,0.06414 -0.373078,0.0034 -1.474857,-0.0422 -1.852025,-0.09367 -0.657796,-0.08918 -1.300318,-0.212671 -1.880387,-0.479915 -1.83239,-0.843085 -3.626599,-3.202428 -3.185887,-6.155897 0.416167,-2.79031 2.34128,-4.807861 5.474259,-4.999152 -0.291535,-4.084896 1.270864,-6.897992 3.365607,-8.979683 1.717303,-1.706423 4.255757,-2.877235 7.045385,-3.101438 3.357426,-0.269213 6.028422,0.91088 7.942626,2.406885 1.673122,1.308369 2.947804,3.029142 3.72423,5.091985"
       style="fill:#f2f2f2;fill-opacity:1;fill-rule:evenodd;stroke:none"
       id="path2993" />
    <path
       d="m 14.522492,41.037205 c 0.469075,-3.144478 2.502729,-5.352477 5.426808,-6.005676 0.06491,-3.372059 1.344769,-6.317651 3.814771,-8.772078 1.987838,-1.975637 4.862009,-3.248 7.885901,-3.490769 0.353169,-0.02843 0.709338,-0.04276 1.05869,-0.04276 0.583614,0 1.161503,0.04247 1.7323,0.122088 l 0.953695,-1.427365 c 0.610067,-0.912849 0.249263,-1.468998 -0.801518,-1.235512 l -2.993621,0.664734 c -1.050779,0.233489 -1.726574,-0.462754 -1.501854,-1.54692 l 0.64034,-3.08906 c 0.224719,-1.084166 -0.314716,-1.455495 -1.198866,-0.825081 l -2.519364,1.795882 c -0.884151,0.630413 -1.766937,0.254021 -1.961386,-0.836334 L 24.504227,13.24129 c -0.194448,-1.090638 -0.830425,-1.220604 -1.413768,-0.289189 l -1.661395,2.654158 c -0.582797,0.931416 -1.538127,0.93198 -2.122287,0.0014 L 17.641836,12.955802 C 17.057675,12.025229 16.421425,12.15632 16.22834,13.246956 l -0.550344,3.107627 c -0.193083,1.090638 -1.075324,1.468155 -1.960292,0.839147 L 11.195883,15.40097 C 10.310916,14.771634 9.7720264,15.143806 9.9981091,16.227692 l 0.6444299,3.088498 c 0.226357,1.083884 -0.448618,1.780969 -1.4996721,1.549171 L 6.1481562,20.204535 c -1.0513265,-0.2318 -1.4110406,0.324912 -0.8001532,1.236917 l 1.7413012,2.598457 c 0.6111597,0.912004 0.2462639,1.822604 -0.8107891,2.023178 l -3.0121656,0.571621 c -1.0570531,0.200573 -1.1833216,0.856588 -0.2803538,1.458027 l 2.5730906,1.714018 c 0.9029678,0.60144 0.9037854,1.586587 0.00134,2.189152 L 2.9897933,33.7133 c -0.9024223,0.602564 -0.7753355,1.258579 0.2819899,1.457747 l 3.0129831,0.567964 c 1.0573259,0.199167 1.4235862,1.109203 0.8135163,2.022053 L 5.3602553,40.36205 c -0.6097967,0.912851 -0.2492636,1.468999 0.8015171,1.235795 l 2.9941617,-0.665016 c 1.0507799,-0.233206 1.7265749,0.463035 1.5015839,1.547203 l -0.640614,3.08906 c -0.2247196,1.084166 0.314715,1.455495 1.198867,0.825079 l 2.519637,-1.795879 c 0.36135,-0.25768 0.721883,-0.344604 1.036053,-0.28581 -0.311444,-0.997806 -0.423803,-2.104195 -0.248991,-3.275288"
       style="fill:#efe315;fill-opacity:1;fill-rule:evenodd;stroke:none"
       id="path2997" />
  </g>
</svg>
