<?xml version="1.0" encoding="UTF-8" standalone="no"?>
<!-- Created with Inkscape (http://www.inkscape.org/) -->

<svg
   xmlns:dc="http://purl.org/dc/elements/1.1/"
   xmlns:cc="http://creativecommons.org/ns#"
   xmlns:rdf="http://www.w3.org/1999/02/22-rdf-syntax-ns#"
   xmlns:svg="http://www.w3.org/2000/svg"
   xmlns="http://www.w3.org/2000/svg"
   xmlns:sodipodi="http://sodipodi.sourceforge.net/DTD/sodipodi-0.dtd"
   xmlns:inkscape="http://www.inkscape.org/namespaces/inkscape"
   width="64px"
   height="64px"
   id="svg3632"
   version="1.1"
   inkscape:version="0.47 r22583"
   sodipodi:docname="mostly_sunny.svg">
  <defs
     id="defs3634">
    <inkscape:perspective
       sodipodi:type="inkscape:persp3d"
       inkscape:vp_x="0 : 32 : 1"
       inkscape:vp_y="0 : 1000 : 0"
       inkscape:vp_z="64 : 32 : 1"
       inkscape:persp3d-origin="32 : 21.333333 : 1"
       id="perspective3640" />
    <inkscape:perspective
       id="perspective3626"
       inkscape:persp3d-origin="0.5 : 0.33333333 : 1"
       inkscape:vp_z="1 : 0.5 : 1"
       inkscape:vp_y="0 : 1000 : 0"
       inkscape:vp_x="0 : 0.5 : 1"
       sodipodi:type="inkscape:persp3d" />
  </defs>
  <sodipodi:namedview
     id="base"
     pagecolor="#ffffff"
     bordercolor="#666666"
     borderopacity="1.0"
     inkscape:pageopacity="0.0"
     inkscape:pageshadow="2"
     inkscape:zoom="4.8054392"
     inkscape:cx="62.641322"
     inkscape:cy="28.757129"
     inkscape:current-layer="layer1"
     showgrid="true"
     inkscape:document-units="px"
     inkscape:grid-bbox="true"
     inkscape:window-width="655"
     inkscape:window-height="536"
     inkscape:window-x="1640"
     inkscape:window-y="226"
     inkscape:window-maximized="0" />
  <metadata
     id="metadata3637">
    <rdf:RDF>
      <cc:Work
         rdf:about="">
        <dc:format>image/svg+xml</dc:format>
        <dc:type
           rdf:resource="http://purl.org/dc/dcmitype/StillImage" />
        <dc:title />
      </cc:Work>
    </rdf:RDF>
  </metadata>
  <g
     id="layer1"
     inkscape:label="Layer 1"
     inkscape:groupmode="layer">
    <path
       d="m 43.119288,31.826351 c 3.543558,-0.756229 7.184468,0.6557 8.948769,2.926924 0.897379,1.154957 1.401814,2.581285 1.477139,4.367655 2.449028,0.327568 4.258199,2.723607 3.623777,5.622293 -0.436451,1.996747 -1.898634,3.305321 -4.116247,3.4852 -8.654536,-0.16943 -18.308157,-0.09319 -27.294453,-0.09319 -1.311805,0 -1.92175,0.05281 -3.21343,0.06495 -0.372007,0.0034 -1.470614,-0.04292 -1.846698,-0.09432 -0.655902,-0.08979 -1.296576,-0.213764 -1.874977,-0.481466 -1.826845,-0.846591 -3.616436,-3.21524 -3.176721,-6.179721 0.414969,-2.800981 2.334544,-4.826532 5.458511,-5.018554 -0.290425,-4.100235 1.267207,-6.924371 3.356195,-9.014023 1.712091,-1.712666 4.242971,-2.888238 7.024843,-3.113015 3.347768,-0.270245 6.011077,0.914081 7.919775,2.416087 1.668309,1.313375 2.939324,3.040727 3.713517,5.111176"
       style="fill:#f2f2f2;fill-opacity:1;fill-rule:evenodd;stroke:none"
       id="path2925" />
    <path
       d="m 14.302364,41.229871 c 0.467998,-3.156505 2.495801,-5.37323 5.411195,-6.028929 0.06472,-3.384671 1.340901,-6.34181 3.804342,-8.805622 1.982389,-1.983194 4.848292,-3.260422 7.862668,-3.503839 0.352154,-0.02851 0.707298,-0.04292 1.055917,-0.04292 l 2.17e-4,0 c 0.594718,0 1.183724,0.04462 1.764844,0.128205 l 1.017301,-1.532788 c 0.608042,-0.916342 0.248547,-1.474617 -0.799211,-1.240237 l -2.985007,0.667276 c -1.048029,0.234378 -1.72188,-0.464525 -1.497807,-1.552839 l 0.638771,-3.100872 c 0.224073,-1.088318 -0.314084,-1.461067 -1.19569,-0.82824 l -2.511845,1.802748 c -0.881605,0.632826 -1.761853,0.254994 -1.955469,-0.839532 l -0.553111,-3.118948 c -0.19389,-1.094807 -0.828035,-1.22527 -1.409428,-0.290291 l -1.656616,2.664306 c -0.581392,0.934977 -1.533974,0.935543 -2.116183,0.0014 l -1.660097,-2.661998 c -0.582478,-0.934132 -1.216627,-0.802539 -1.409428,0.292269 l -0.548761,3.119511 c -0.192527,1.094807 -1.07223,1.473768 -1.954381,0.842356 L 11.08975,15.401245 c -0.882422,-0.631698 -1.4197624,-0.2581 -1.1943296,0.829929 l 0.6425766,3.100309 c 0.225432,1.088032 -0.447329,1.787782 -1.4953583,1.555097 L 6.0562712,20.223239 C 5.0082466,19.990554 4.6492876,20.549394 5.258697,21.464888 l 1.7362865,2.608393 c 0.6094016,0.915494 0.2455554,1.829575 -0.8087289,2.030917 L 3.1827502,26.678004 C 2.12875,26.879346 2.003107,27.537867 2.9034818,28.141606 l 2.5659597,1.720575 c 0.9000963,0.603739 0.90064,1.592653 8.22e-4,2.197523 l -2.5629623,1.723963 c -0.8998312,0.60487 -0.7731139,1.263393 0.2811782,1.46332 l 3.0043135,0.570137 c 1.0542841,0.19993 1.4192176,1.113446 0.8111755,2.029786 l -1.7330307,2.610936 c -0.6080434,0.916339 -0.2485406,1.474615 0.7992133,1.240518 l 2.9852802,-0.667559 c 1.0480278,-0.234098 1.7218778,0.464806 1.4975348,1.553119 l -0.6387728,3.100875 c -0.2240721,1.088313 0.3140838,1.461061 1.1956908,0.828236 L 13.622,44.710287 c 0.308101,-0.221391 0.615657,-0.316555 0.894388,-0.303283 -0.285259,-0.972534 -0.381794,-2.045033 -0.214012,-3.177117"
       style="fill:#efe315;fill-opacity:1;fill-rule:evenodd;stroke:none"
       id="path2929" />
  </g>
</svg>
