<?xml version="1.0" encoding="UTF-8" standalone="no"?>
<!-- Created with Inkscape (http://www.inkscape.org/) -->

<svg
   xmlns:dc="http://purl.org/dc/elements/1.1/"
   xmlns:cc="http://creativecommons.org/ns#"
   xmlns:rdf="http://www.w3.org/1999/02/22-rdf-syntax-ns#"
   xmlns:svg="http://www.w3.org/2000/svg"
   xmlns="http://www.w3.org/2000/svg"
   xmlns:sodipodi="http://sodipodi.sourceforge.net/DTD/sodipodi-0.dtd"
   xmlns:inkscape="http://www.inkscape.org/namespaces/inkscape"
   width="64px"
   height="64px"
   id="svg3692"
   version="1.1"
   inkscape:version="0.47 r22583"
   sodipodi:docname="rain.svg">
  <defs
     id="defs3694">
    <inkscape:perspective
       sodipodi:type="inkscape:persp3d"
       inkscape:vp_x="0 : 32 : 1"
       inkscape:vp_y="0 : 1000 : 0"
       inkscape:vp_z="64 : 32 : 1"
       inkscape:persp3d-origin="32 : 21.333333 : 1"
       id="perspective3700" />
    <inkscape:perspective
       id="perspective3682"
       inkscape:persp3d-origin="0.5 : 0.33333333 : 1"
       inkscape:vp_z="1 : 0.5 : 1"
       inkscape:vp_y="0 : 1000 : 0"
       inkscape:vp_x="0 : 0.5 : 1"
       sodipodi:type="inkscape:persp3d" />
  </defs>
  <sodipodi:namedview
     id="base"
     pagecolor="#ffffff"
     bordercolor="#666666"
     borderopacity="1.0"
     inkscape:pageopacity="0.0"
     inkscape:pageshadow="2"
     inkscape:zoom="3.6274578"
     inkscape:cx="71.194445"
     inkscape:cy="34.932382"
     inkscape:current-layer="layer1"
     showgrid="true"
     inkscape:document-units="px"
     inkscape:grid-bbox="true"
     inkscape:window-width="655"
     inkscape:window-height="594"
     inkscape:window-x="496"
     inkscape:window-y="238"
     inkscape:window-maximized="0" />
  <metadata
     id="metadata3697">
    <rdf:RDF>
      <cc:Work
         rdf:about="">
        <dc:format>image/svg+xml</dc:format>
        <dc:type
           rdf:resource="http://purl.org/dc/dcmitype/StillImage" />
        <dc:title />
      </cc:Work>
    </rdf:RDF>
  </metadata>
  <g
     id="layer1"
     inkscape:label="Layer 1"
     inkscape:groupmode="layer">
    <path
       d="m 39.724833,14.922257 c 1.517053,-0.224539 3.442018,-0.333527 4.933495,0 0.592123,0.132411 1.094247,0.371315 1.627126,0.539328 1.464605,0.459696 2.432267,1.21794 3.4077,2.158562 0.552626,0.531834 0.848527,0.850059 1.271332,1.520549 0.339606,0.540264 0.653636,1.07397 0.865038,1.865008 0.180324,0.677669 0.298166,1.212002 0.304964,2.0605 2.618746,0.286059 4.66382,2.183545 4.50195,5.404211 -0.134676,3.688789 -2.529068,4.398004 -3.513567,4.430482 -3.075543,0.03904 -7.203894,-0.02248 -10.70192,-0.02248 l -24.667479,0 c -1.682161,0 -3.402199,0.173947 -4.932848,0 -0.14957,-0.01781 -0.38072,-0.06401 -0.531584,-0.09462 -0.472339,-0.09557 -0.833311,-0.179882 -1.350004,-0.395675 -2.9039592,-1.215127 -5.1241783,-5.158438 -3.2552195,-8.782584 0.117842,-0.228286 0.6196415,-0.985593 0.7280946,-1.144862 0.1210793,-0.176757 1.1599668,-1.160165 2.0178809,-1.651086 0.306259,-0.175196 1.256117,-0.572743 1.323132,-0.588668 0.56849,-0.134288 1.115612,-0.147092 1.728779,-0.197059 -0.15151,-1.827532 0.223059,-3.87679 0.76306,-5.346749 0.149891,-0.40879 0.427985,-0.738568 0.508274,-1.128934 0.994856,-1.796302 2.317664,-3.20099 3.763493,-4.2677793 0.87054,-0.6423824 1.836586,-1.1823355 2.847953,-1.5708284 0.694425,-0.2654483 1.849212,-0.7270146 2.899105,-0.9318788 0.951152,-0.1848768 2.060614,-0.3388373 3.204717,-0.2445247 5.840296,0.4781201 9.686669,3.402108 11.848289,7.5059352 0.222412,0.426902 0.214641,0.643944 0.408239,0.883161"
       style="fill:#f2f2f2;fill-opacity:1;fill-rule:evenodd;stroke:none"
       id="path3005" />
    <path
       d="m 15.210905,34.497209 4.679035,0 c -0.351261,1.232616 -0.94921,2.987386 -1.423814,4.416119 -0.210757,0.628644 -0.382987,1.299759 -0.712556,1.715732 -1.337052,1.691996 -4.480258,0.61178 -4.068782,-1.815353 0.225647,-1.32724 1.148634,-2.903378 1.37331,-4.170034 0.02915,-0.07026 0.07932,-0.118987 0.152807,-0.146464"
       style="fill:#79cbea;fill-opacity:1;fill-rule:evenodd;stroke:none"
       id="path3009" />
    <path
       d="m 21.619044,34.497209 4.679034,0 c -1.712917,5.304589 -3.634321,10.856513 -5.441769,16.287891 -0.436405,1.31194 -0.724533,2.844979 -2.085218,3.238154 -1.691875,0.488113 -3.202451,-0.826947 -2.949934,-2.503017 0.101004,-0.672367 0.471368,-1.391886 0.711584,-2.109219 1.589894,-4.74184 3.382451,-10.152606 4.933496,-14.767345 0.02915,-0.07026 0.07964,-0.118987 0.152807,-0.146464"
       style="fill:#79cbea;fill-opacity:1;fill-rule:evenodd;stroke:none"
       id="path3013" />
    <path
       d="m 28.417613,34.497209 4.679036,0 c -1.712916,5.304589 -1.368132,4.610678 -3.175581,10.042057 -0.436403,1.311937 -0.724533,2.844977 -2.085218,3.238152 -1.691873,0.488114 -3.20245,-0.826948 -2.949931,-2.503018 0.100992,-0.672364 0.471366,-1.391887 0.711582,-2.10922 1.589895,-4.741839 1.116261,-3.906768 2.667308,-8.521507 0.02915,-0.07026 0.07963,-0.118987 0.152804,-0.146464"
       style="fill:#79cbea;fill-opacity:1;fill-rule:evenodd;stroke:none"
       id="path3017" />
    <path
       d="m 34.944599,34.497209 c 1.544246,0.03248 3.219609,-0.06527 4.679036,0.04871 -0.607016,1.851891 -1.289464,3.870856 -1.932415,5.788954 -0.2182,0.648004 -0.366473,1.37783 -0.661078,1.912785 -1.099426,1.9893 -4.723065,1.135806 -4.272417,-1.519299 0.157015,-0.928443 0.661728,-2.003039 1.01655,-3.041097 0.36777,-1.076471 0.720647,-2.144509 1.016547,-3.043596 0.02915,-0.07026 0.07964,-0.118989 0.153777,-0.146464"
       style="fill:#79cbea;fill-opacity:1;fill-rule:evenodd;stroke:none"
       id="path3021" />
    <path
       d="m 41.606257,34.497209 4.679036,0 c -1.713564,5.304589 -3.634969,10.856513 -5.441123,16.287891 -0.436726,1.31194 -0.725828,2.844979 -2.085543,3.238154 -1.692195,0.488113 -3.202125,-0.826947 -2.948959,-2.503017 0.101013,-0.672367 0.469424,-1.391886 0.711258,-2.109219 1.589248,-4.74184 3.380509,-10.152606 4.933821,-14.767345 0.02881,-0.07026 0.07931,-0.118987 0.15151,-0.146464"
       style="fill:#79cbea;fill-opacity:1;fill-rule:evenodd;stroke:none"
       id="path3025" />
  </g>
</svg>
