<?xml version="1.0" encoding="UTF-8" standalone="no"?>
<!-- Created with Inkscape (http://www.inkscape.org/) -->

<svg
   xmlns:dc="http://purl.org/dc/elements/1.1/"
   xmlns:cc="http://creativecommons.org/ns#"
   xmlns:rdf="http://www.w3.org/1999/02/22-rdf-syntax-ns#"
   xmlns:svg="http://www.w3.org/2000/svg"
   xmlns="http://www.w3.org/2000/svg"
   xmlns:sodipodi="http://sodipodi.sourceforge.net/DTD/sodipodi-0.dtd"
   xmlns:inkscape="http://www.inkscape.org/namespaces/inkscape"
   width="64px"
   height="64px"
   id="svg3968"
   version="1.1"
   inkscape:version="0.47 r22583"
   sodipodi:docname="scattered_showers.svg">
  <defs
     id="defs3970">
    <inkscape:perspective
       sodipodi:type="inkscape:persp3d"
       inkscape:vp_x="0 : 32 : 1"
       inkscape:vp_y="0 : 1000 : 0"
       inkscape:vp_z="64 : 32 : 1"
       inkscape:persp3d-origin="32 : 21.333333 : 1"
       id="perspective3976" />
    <inkscape:perspective
       id="perspective3960"
       inkscape:persp3d-origin="0.5 : 0.33333333 : 1"
       inkscape:vp_z="1 : 0.5 : 1"
       inkscape:vp_y="0 : 1000 : 0"
       inkscape:vp_x="0 : 0.5 : 1"
       sodipodi:type="inkscape:persp3d" />
  </defs>
  <sodipodi:namedview
     id="base"
     pagecolor="#ffffff"
     bordercolor="#666666"
     borderopacity="1.0"
     inkscape:pageopacity="0.0"
     inkscape:pageshadow="2"
     inkscape:zoom="3.8890873"
     inkscape:cx="23.10063"
     inkscape:cy="31.511137"
     inkscape:current-layer="layer1"
     showgrid="true"
     inkscape:document-units="px"
     inkscape:grid-bbox="true"
     inkscape:window-width="655"
     inkscape:window-height="501"
     inkscape:window-x="2223"
     inkscape:window-y="304"
     inkscape:window-maximized="0" />
  <metadata
     id="metadata3973">
    <rdf:RDF>
      <cc:Work
         rdf:about="">
        <dc:format>image/svg+xml</dc:format>
        <dc:type
           rdf:resource="http://purl.org/dc/dcmitype/StillImage" />
        <dc:title />
      </cc:Work>
    </rdf:RDF>
  </metadata>
  <g
     id="layer1"
     inkscape:label="Layer 1"
     inkscape:groupmode="layer">
    <path
       d="m 43.992802,35.295539 -1.231004,-0.692948 1.231004,-0.693588 c 0.778229,-0.437802 1.04814,-1.413997 0.602186,-2.178475 -0.445631,-0.765437 -1.43758,-1.03048 -2.216133,-0.59268 l -1.260887,0.709874 0,-1.402501 c 0,-0.881992 -0.726909,-1.596655 -1.624016,-1.596655 -0.896782,0 -1.624017,0.714663 -1.624017,1.596655 l 0,1.402501 -1.260561,-0.709874 c -0.778554,-0.43844 -1.771153,-0.172757 -2.216458,0.59268 -0.445955,0.764478 -0.176044,1.740673 0.602185,2.178475 l 1.231005,0.693588 -1.231005,0.692948 c -0.778229,0.437803 -1.047815,1.413997 -0.602185,2.178476 0.300118,0.5154 0.847737,0.804075 1.410945,0.804075 0.273485,0 0.550867,-0.06866 0.805513,-0.211398 l 1.260561,-0.709872 0,1.402821 c 0,0.881674 0.727235,1.596656 1.624017,1.596656 0.897107,0 1.624016,-0.714982 1.624016,-1.596656 l 0,-1.402821 1.260562,0.709872 c 0.254646,0.14338 0.532028,0.211398 0.805837,0.211398 0.563209,0 1.110827,-0.288675 1.410621,-0.804075 0.445954,-0.764479 0.176043,-1.740673 -0.602186,-2.178476"
       style="fill:#f2f2f2;fill-opacity:1;fill-rule:nonzero;stroke:none"
       id="path2973" />
    <path
       d="M 52.060235,22.872184 C 51.970265,20.852096 51.367754,19.239156 50.295903,17.933091 48.188579,15.364712 43.839789,13.768058 39.607277,14.623226 38.682562,12.281891 37.164431,10.328543 35.171763,8.8433354 32.891969,7.144494 29.710844,5.8055392 25.712191,6.1111391 c -3.322413,0.253868 -6.345683,1.5835631 -8.390969,3.5199837 -2.494814,2.3633692 -4.355613,5.5566812 -4.008073,10.1936852 -3.7316655,0.217145 -6.0244528,2.507388 -6.5201028,5.675151 -0.524882,3.352337 1.611999,6.030885 3.7943538,6.988239 0.690856,0.302725 1.456093,0.442912 2.239518,0.54446 0.449203,0.05811 1.761409,0.110488 2.20574,0.106656 1.542816,-0.01373 2.271349,-0.07345 3.838201,-0.07345 4.484884,0 9.109108,-0.01503 13.727162,-0.01853 -0.124075,-0.72552 0.0088,-1.464132 0.385542,-2.109817 0.576851,-0.991844 1.657796,-1.607515 2.820267,-1.607515 0.210148,0 0.419321,0.02012 0.624597,0.05971 0.444006,-1.243474 1.65065,-2.13792 3.065818,-2.13792 1.414844,0 2.621488,0.894446 3.065819,2.13824 0.204951,-0.03959 0.414124,-0.05971 0.623947,-0.05971 1.162471,0 2.243415,0.61567 2.819941,1.606235 0.386191,0.661975 0.514489,1.420384 0.374823,2.162509 1.722432,0.0182 3.424726,0.0412 5.093241,0.07217 2.648771,-0.203415 4.395238,-1.683512 4.916548,-3.941183 0.757766,-3.277933 -1.403151,-5.987455 -4.328329,-6.357881"
       style="fill:#f2f2f2;fill-opacity:1;fill-rule:evenodd;stroke:none"
       id="path2977" />
    <path
       d="m 18.907008,34.662497 c -1.32877,4.075941 -0.961093,3.498591 -2.487669,8.137832 -0.241004,0.733502 -0.612254,1.46956 -0.713917,2.156762 -0.253347,1.713849 1.262185,3.058551 2.959607,2.559756 1.365149,-0.402356 1.654224,-1.969633 2.092059,-3.311143 1.727953,-5.292592 1.497343,-4.903008 2.958633,-9.547997 -1.614922,0.0026 -3.222049,0.0048 -4.808713,0.0048"
       style="fill:#79cbea;fill-opacity:1;fill-rule:evenodd;stroke:none"
       id="path2981" />
    <path
       d="m 26.52449,34.653122 c -0.281929,5.1e-4 -0.560611,9.26e-4 -0.84189,0.0013 -0.518711,1.540132 -1.647727,4.847764 -1.781546,5.654394 -0.452451,2.714952 3.183397,3.587364 4.286429,1.553544 0.266014,-0.493047 1.670138,-4.952823 2.390877,-7.215284 -1.352806,0.0017 -2.707236,0.0036 -4.05387,0.0061"
       style="fill:#79cbea;fill-opacity:1;fill-rule:evenodd;stroke:none"
       id="path2985" />
  </g>
</svg>
