<?xml version="1.0" encoding="UTF-8" standalone="no"?>
<!-- Created with Inkscape (http://www.inkscape.org/) -->

<svg
   xmlns:dc="http://purl.org/dc/elements/1.1/"
   xmlns:cc="http://creativecommons.org/ns#"
   xmlns:rdf="http://www.w3.org/1999/02/22-rdf-syntax-ns#"
   xmlns:svg="http://www.w3.org/2000/svg"
   xmlns="http://www.w3.org/2000/svg"
   xmlns:sodipodi="http://sodipodi.sourceforge.net/DTD/sodipodi-0.dtd"
   xmlns:inkscape="http://www.inkscape.org/namespaces/inkscape"
   width="64px"
   height="64px"
   id="svg4029"
   version="1.1"
   inkscape:version="0.47 r22583"
   sodipodi:docname="snow.svg">
  <defs
     id="defs4031">
    <inkscape:perspective
       sodipodi:type="inkscape:persp3d"
       inkscape:vp_x="0 : 32 : 1"
       inkscape:vp_y="0 : 1000 : 0"
       inkscape:vp_z="64 : 32 : 1"
       inkscape:persp3d-origin="32 : 21.333333 : 1"
       id="perspective4037" />
    <inkscape:perspective
       id="perspective4022"
       inkscape:persp3d-origin="0.5 : 0.33333333 : 1"
       inkscape:vp_z="1 : 0.5 : 1"
       inkscape:vp_y="0 : 1000 : 0"
       inkscape:vp_x="0 : 0.5 : 1"
       sodipodi:type="inkscape:persp3d" />
  </defs>
  <sodipodi:namedview
     id="base"
     pagecolor="#ffffff"
     bordercolor="#666666"
     borderopacity="1.0"
     inkscape:pageopacity="0.0"
     inkscape:pageshadow="2"
     inkscape:zoom="5.5"
     inkscape:cx="33.431207"
     inkscape:cy="32.935222"
     inkscape:current-layer="layer1"
     showgrid="true"
     inkscape:document-units="px"
     inkscape:grid-bbox="true"
     inkscape:window-width="649"
     inkscape:window-height="693"
     inkscape:window-x="1650"
     inkscape:window-y="206"
     inkscape:window-maximized="0" />
  <metadata
     id="metadata4034">
    <rdf:RDF>
      <cc:Work
         rdf:about="">
        <dc:format>image/svg+xml</dc:format>
        <dc:type
           rdf:resource="http://purl.org/dc/dcmitype/StillImage" />
        <dc:title />
      </cc:Work>
    </rdf:RDF>
  </metadata>
  <g
     id="layer1"
     inkscape:label="Layer 1"
     inkscape:groupmode="layer">
    <path
       d="m 26.944026,40.566911 -1.243216,-0.688192 1.243216,-0.688191 c 0.785742,-0.434913 1.058259,-1.403644 0.607999,-2.163158 -0.450259,-0.759515 -1.451785,-1.022617 -2.237854,-0.587704 l -1.273059,0.704673 0,-1.392549 c 0,-0.875533 -0.733929,-1.584962 -1.639696,-1.584962 -0.905112,0 -1.639695,0.709429 -1.639695,1.584962 l 0,1.392867 -1.272402,-0.704991 c -0.786069,-0.435548 -1.787923,-0.171811 -2.238184,0.587704 -0.449933,0.759514 -0.178071,1.728245 0.607999,2.163158 l 1.243216,0.688191 -1.242889,0.688192 c -0.786068,0.434913 -1.05793,1.403642 -0.608326,2.163158 0.303016,0.511308 0.855921,0.797553 1.424566,0.797553 0.276453,0 0.556514,-0.06783 0.813618,-0.209848 l 1.272402,-0.704675 0,1.392866 c 0,0.875216 0.734583,1.584964 1.639695,1.584964 0.905767,0 1.639696,-0.709748 1.639696,-1.584964 l 0,-1.392866 1.27273,0.704675 c 0.257104,0.14233 0.537491,0.209848 0.813616,0.209848 0.568646,0 1.121551,-0.286245 1.424567,-0.797553 0.449931,-0.759516 0.177743,-1.728245 -0.607999,-2.163158"
       style="fill:#f2f2f2;fill-opacity:1;fill-rule:nonzero;stroke:none"
       id="path2861" />
    <path
       d="m 43.757945,34.514024 -1.24256,-0.687874 1.24256,-0.688508 c 0.785743,-0.434598 1.058261,-1.403647 0.608001,-2.162528 -0.449933,-0.759831 -1.451458,-1.022934 -2.237529,-0.588337 l -1.273059,0.704673 0,-1.392231 c 0,-0.875532 -0.734255,-1.584965 -1.639694,-1.584965 -0.905112,0 -1.639694,0.709433 -1.639694,1.584965 l 0,1.392231 -1.272731,-0.704673 c -0.786071,-0.43523 -1.788251,-0.171494 -2.238184,0.588337 -0.449932,0.758881 -0.177414,1.72793 0.608327,2.162528 l 1.242889,0.688508 -1.242562,0.687874 c -0.786068,0.434596 -1.058259,1.403643 -0.608327,2.162524 0.303017,0.511627 0.855921,0.798187 1.424239,0.798187 0.276781,0 0.556513,-0.06816 0.813618,-0.20985 l 1.272731,-0.704673 0,1.392548 c 0,0.875218 0.734582,1.584965 1.639694,1.584965 0.905439,0 1.639694,-0.709747 1.639694,-1.584965 l 0,-1.392548 1.272732,0.704673 c 0.257104,0.142332 0.537163,0.20985 0.813616,0.20985 0.568318,0 1.121552,-0.28656 1.42424,-0.798187 0.45026,-0.758881 0.177742,-1.727928 -0.608001,-2.162524"
       style="fill:#f2f2f2;fill-opacity:1;fill-rule:nonzero;stroke:none"
       id="path2965" />
    <path
       d="M 51.903261,22.18166 C 51.812411,20.176365 51.204095,18.575233 50.121898,17.278735 47.99423,14.729161 43.603455,13.144198 39.330084,13.993104 38.39644,11.668914 36.863653,9.7298686 34.851749,8.2555366 32.549946,6.5691342 29.338111,5.2399848 25.300856,5.5433473 21.94604,5.7953573 18.893912,7.1153137 16.82921,9.0375577 14.309981,11.383619 12.431547,14.553548 12.781786,19.156599 c -3.7673624,0.215554 -6.0822841,2.489027 -6.5827187,5.633595 -0.5299488,3.327791 1.6278893,5.986724 3.8309827,6.937068 0.697528,0.30051 1.470151,0.439669 2.26114,0.540473 0.453538,0.05769 1.778412,0.109681 2.227033,0.105876 1.55771,-0.01362 2.293278,-0.0729 3.875255,-0.0729 4.52818,0 9.196719,-0.01491 13.859683,-0.01838 -0.1256,-0.720208 0.0089,-1.453413 0.389263,-2.094371 0.58242,-0.984581 1.673801,-1.595743 2.847494,-1.595743 0.212178,0 0.423042,0.01998 0.630626,0.05928 0.448293,-1.234369 1.666587,-2.122266 3.095417,-2.122266 1.428501,0 2.647122,0.887897 3.095414,2.122583 0.207258,-0.0393 0.417795,-0.05928 0.629971,-0.05928 1.174023,0 2.264746,0.611162 2.847167,1.594473 0.389919,0.657127 0.519127,1.409983 0.378441,2.146676 1.73906,0.01807 3.458116,0.0409 5.142411,0.07164 2.674341,-0.201928 4.437669,-1.671188 4.96401,-3.912327 0.765082,-3.253934 -1.416695,-5.943618 -4.370114,-6.311331"
       style="fill:#f2f2f2;fill-opacity:1;fill-rule:evenodd;stroke:none"
       id="path2969" />
  </g>
</svg>
