<?xml version="1.0" encoding="UTF-8" standalone="no"?>
<!-- Created with Inkscape (http://www.inkscape.org/) -->

<svg
   xmlns:dc="http://purl.org/dc/elements/1.1/"
   xmlns:cc="http://creativecommons.org/ns#"
   xmlns:rdf="http://www.w3.org/1999/02/22-rdf-syntax-ns#"
   xmlns:svg="http://www.w3.org/2000/svg"
   xmlns="http://www.w3.org/2000/svg"
   xmlns:sodipodi="http://sodipodi.sourceforge.net/DTD/sodipodi-0.dtd"
   xmlns:inkscape="http://www.inkscape.org/namespaces/inkscape"
   width="64px"
   height="64px"
   id="svg3171"
   version="1.1"
   inkscape:version="0.47 r22583"
   sodipodi:docname="sunny.svg">
  <defs
     id="defs3173">
    <inkscape:perspective
       sodipodi:type="inkscape:persp3d"
       inkscape:vp_x="0 : 32 : 1"
       inkscape:vp_y="0 : 1000 : 0"
       inkscape:vp_z="64 : 32 : 1"
       inkscape:persp3d-origin="32 : 21.333333 : 1"
       id="perspective3179" />
    <inkscape:perspective
       id="perspective3224"
       inkscape:persp3d-origin="0.5 : 0.33333333 : 1"
       inkscape:vp_z="1 : 0.5 : 1"
       inkscape:vp_y="0 : 1000 : 0"
       inkscape:vp_x="0 : 0.5 : 1"
       sodipodi:type="inkscape:persp3d" />
  </defs>
  <sodipodi:namedview
     id="base"
     pagecolor="#ffffff"
     bordercolor="#666666"
     borderopacity="1.0"
     inkscape:pageopacity="0.0"
     inkscape:pageshadow="2"
     inkscape:zoom="2.4251465"
     inkscape:cx="32"
     inkscape:cy="96.328181"
     inkscape:current-layer="layer1"
     showgrid="true"
     inkscape:document-units="px"
     inkscape:grid-bbox="true"
     inkscape:window-width="655"
     inkscape:window-height="895"
     inkscape:window-x="839"
     inkscape:window-y="77"
     inkscape:window-maximized="0" />
  <metadata
     id="metadata3176">
    <rdf:RDF>
      <cc:Work
         rdf:about="">
        <dc:format>image/svg+xml</dc:format>
        <dc:type
           rdf:resource="http://purl.org/dc/dcmitype/StillImage" />
        <dc:title />
      </cc:Work>
    </rdf:RDF>
  </metadata>
  <g
     id="layer1"
     inkscape:label="Layer 1"
     inkscape:groupmode="layer">
    <path
       d="m 26.071776,11.353137 c 0.232563,-1.273567 0.998901,-1.4266449 1.702501,-0.33999 l 2.005356,3.096375 c 0.7036,1.086655 1.853929,1.085998 2.556214,-0.0033 l 2.001087,-3.099331 c 0.702285,-1.0876409 1.468624,-0.935548 1.702828,0.33769 l 0.667467,3.628205 c 0.234205,1.273239 1.297159,1.712763 2.362084,0.976939 l 3.034806,-2.097428 c 1.064924,-0.736153 1.714653,-0.302542 1.443988,0.96347 l -0.771594,3.607181 c -0.270666,1.266012 0.543302,2.079032 1.808927,1.806712 l 3.606029,-0.776229 c 1.265625,-0.272649 1.699872,0.376781 0.965396,1.442741 l -2.093389,3.037246 c -0.734805,1.06596 -0.293659,2.128635 0.979849,2.361208 l 3.629023,0.663227 c 1.27318,0.232573 1.42625,0.998619 0.339646,1.702579 l -3.096232,2.004793 c -1.086604,0.70396 -1.085619,1.854343 0.0033,2.556661 l 3.098203,2.00085 c 1.087589,0.702318 0.935833,1.468692 -0.337347,1.703236 l -3.62738,0.667498 c -1.273509,0.234544 -1.713012,1.297547 -0.977222,2.36285 l 2.097331,3.034618 c 0.736119,1.065303 0.302528,1.715062 -0.963425,1.444055 l -3.607015,-0.77163 c -1.265953,-0.270678 -2.078607,0.542999 -1.806299,1.808682 l 0.776193,3.606853 c 0.272308,1.265684 -0.377093,1.699952 -1.443003,0.965441 l -3.037125,-2.093814 c -1.065911,-0.734839 -2.128536,-0.293673 -2.361099,0.979566 l -0.662868,3.629191 c -0.232562,1.273568 -0.9989,1.426645 -1.702499,0.339661 l -2.005029,-3.096046 c -0.703599,-1.086983 -1.853928,-1.085998 -2.556542,0 l -2.000758,3.099331 c -0.702614,1.087641 -1.468624,0.935549 -1.702829,-0.337691 L 25.432554,48.936332 C 25.198349,47.663094 24.135395,47.22357 23.070141,47.959723 l -3.034477,2.097099 c -1.064925,0.736153 -1.714983,0.302542 -1.443989,-0.96347 l 0.771595,-3.60751 C 19.633935,44.21983 18.819968,43.40681 17.554343,43.679131 l -3.606029,0.776557 c -1.265625,0.272321 -1.699873,-0.37711 -0.965396,-1.44307 l 2.093388,-3.037246 c 0.734477,-1.065959 0.29366,-2.128634 -0.979849,-2.361207 L 10.466975,36.95166 C 9.1934667,36.719087 9.0403957,35.952713 10.127329,35.249082 l 3.09656,-2.005779 c 1.086604,-0.703632 1.085947,-1.854014 0,-2.556332 L 10.124701,28.685792 C 9.0371107,27.983474 9.1891957,27.217428 10.462376,26.983213 l 3.627709,-0.667498 c 1.273508,-0.234216 1.712683,-1.297547 0.976893,-2.362522 l -2.097331,-3.034618 c -0.736119,-1.064974 -0.302528,-1.715062 0.963425,-1.444055 l 3.607672,0.77163 c 1.265953,0.270678 2.078607,-0.543327 1.806299,-1.809011 l -0.77685,-3.606524 c -0.272308,-1.265684 0.376764,-1.70028 1.442674,-0.965441 l 3.037763,2.093486 c 1.066239,0.73451 2.128536,0.293672 2.361098,-0.979895 l 0.662868,-3.628862 z"
       style="fill:#efe315;fill-opacity:1;fill-rule:evenodd;stroke:none"
       id="path2921-2" />
  </g>
</svg>
