<?xml version="1.0" encoding="UTF-8" standalone="no"?>
<!-- Created with Inkscape (http://www.inkscape.org/) -->

<svg
   xmlns:dc="http://purl.org/dc/elements/1.1/"
   xmlns:cc="http://creativecommons.org/ns#"
   xmlns:rdf="http://www.w3.org/1999/02/22-rdf-syntax-ns#"
   xmlns:svg="http://www.w3.org/2000/svg"
   xmlns="http://www.w3.org/2000/svg"
   xmlns:sodipodi="http://sodipodi.sourceforge.net/DTD/sodipodi-0.dtd"
   xmlns:inkscape="http://www.inkscape.org/namespaces/inkscape"
   width="64px"
   height="64px"
   id="svg3761"
   version="1.1"
   inkscape:version="0.47 r22583"
   sodipodi:docname="thunderstorm.svg">
  <defs
     id="defs3763">
    <inkscape:perspective
       sodipodi:type="inkscape:persp3d"
       inkscape:vp_x="0 : 32 : 1"
       inkscape:vp_y="0 : 1000 : 0"
       inkscape:vp_z="64 : 32 : 1"
       inkscape:persp3d-origin="32 : 21.333333 : 1"
       id="perspective3769" />
    <inkscape:perspective
       id="perspective3750"
       inkscape:persp3d-origin="0.5 : 0.33333333 : 1"
       inkscape:vp_z="1 : 0.5 : 1"
       inkscape:vp_y="0 : 1000 : 0"
       inkscape:vp_x="0 : 0.5 : 1"
       sodipodi:type="inkscape:persp3d" />
  </defs>
  <sodipodi:namedview
     id="base"
     pagecolor="#ffffff"
     bordercolor="#666666"
     borderopacity="1.0"
     inkscape:pageopacity="0.0"
     inkscape:pageshadow="2"
     inkscape:zoom="5.5"
     inkscape:cx="32"
     inkscape:cy="30.363636"
     inkscape:current-layer="layer1"
     showgrid="true"
     inkscape:document-units="px"
     inkscape:grid-bbox="true"
     inkscape:window-width="655"
     inkscape:window-height="719"
     inkscape:window-x="2223"
     inkscape:window-y="144"
     inkscape:window-maximized="0" />
  <metadata
     id="metadata3766">
    <rdf:RDF>
      <cc:Work
         rdf:about="">
        <dc:format>image/svg+xml</dc:format>
        <dc:type
           rdf:resource="http://purl.org/dc/dcmitype/StillImage" />
        <dc:title />
      </cc:Work>
    </rdf:RDF>
  </metadata>
  <g
     id="layer1"
     inkscape:label="Layer 1"
     inkscape:groupmode="layer">
    <path
       d="m 50.212208,11.520068 c 1.986507,0.200376 3.593537,1.609263 3.305475,3.83122 -0.121012,0.942176 -0.696807,1.567375 -1.342644,2.111298 -0.168036,-0.22976 -0.393948,-0.592377 -0.630383,-0.913416 -0.24564,-0.373557 -0.45215,-0.566743 -0.763889,-0.953116 -2.31107,-2.493294 -6.091717,-4.290429 -11.108464,-3.731501 -0.447548,-1.552682 -1.573817,-2.4648491 -2.373549,-3.6836741 0.722785,-1.252274 1.49917,-2.1825709 2.880289,-2.7796361 0.654715,-0.283215 1.513968,-0.5795593 2.562303,-0.6251992 4.649764,0.015939 7.525777,2.4310873 7.470862,6.7440244"
       style="fill:#f2f2f2;fill-opacity:1;fill-rule:evenodd;stroke:none"
       id="path2865" />
    <path
       d="m 38.847087,13.337677 c 1.540932,-0.224759 3.496201,-0.333857 5.011156,0 0.601444,0.132542 1.111472,0.37168 1.652738,0.539861 1.487662,0.460144 2.470558,1.219136 3.461346,2.160687 0.561325,0.532357 0.861884,0.850896 1.291345,1.522048 0.34495,0.540797 0.663922,1.07503 0.878653,1.866844 0.183163,0.678341 0.30286,1.2132 0.309766,2.062532 2.659968,0.286343 4.737235,2.185696 4.572815,5.409536 -0.136796,3.692426 -2.568879,4.402341 -3.569203,4.43485 -3.123957,0.03908 -7.316965,-0.02251 -10.870056,-0.02251 l -25.055786,0 c -1.708641,0 -3.455755,0.174118 -5.0105,0 -0.151923,-0.01783 -0.386713,-0.06408 -0.539951,-0.09472 -0.479774,-0.09565 -0.846757,-0.180062 -1.3712536,-0.396067 -2.9496731,-1.216317 -5.2048426,-5.163512 -3.3064622,-8.791229 0.1193679,-0.228511 0.6297241,-0.986566 0.7395563,-1.14599 0.1229847,-0.176932 1.1785529,-1.161309 2.0496439,-1.652714 0.3110812,-0.17537 1.2758916,-0.573308 1.3436326,-0.589251 0.577767,-0.134417 1.133502,-0.147235 1.756321,-0.19725 -0.153895,-1.829333 0.22657,-3.880613 0.77507,-5.352019 0.152253,-0.409192 0.434723,-0.739298 0.516275,-1.130047 1.010518,-1.798072 2.35415,-3.2041471 3.822738,-4.2719871 0.884245,-0.643016 1.865497,-1.1835012 2.892785,-1.5723753 0.705357,-0.2657096 1.878321,-0.7277321 2.944741,-0.9327973 0.966126,-0.1850595 2.093053,-0.339171 3.255163,-0.2447659 5.932233,0.4785905 9.839154,3.4054605 12.034803,7.5133316 0.225911,0.427325 0.218019,0.64458 0.414664,0.884032"
       style="fill:#f2f2f2;fill-opacity:1;fill-rule:evenodd;stroke:none"
       id="path2869" />
    <path
       d="m 13.947267,32.931921 4.752692,0 c -0.356789,1.233828 -0.964153,2.990327 -1.446229,4.42047 -0.214074,0.629262 -0.389014,1.301039 -0.723772,1.717422 -1.358099,1.693664 -4.550784,0.612382 -4.132831,-1.817142 0.2292,-1.328548 1.166716,-2.906238 1.39493,-4.174141 0.02959,-0.07033 0.08057,-0.119103 0.15521,-0.146609"
       style="fill:#79cbea;fill-opacity:1;fill-rule:evenodd;stroke:none"
       id="path2873" />
    <path
       d="m 20.45628,32.931921 4.75269,0 c -1.739879,5.309815 -3.691531,10.867211 -5.527432,16.303943 -0.443273,1.313232 -0.735938,2.847783 -2.118043,3.241345 -1.718505,0.488593 -3.252862,-0.827764 -2.996369,-2.505485 0.102598,-0.673028 0.478788,-1.393257 0.722786,-2.111299 1.614922,-4.746512 3.435696,-10.162612 5.011156,-14.781895 0.0296,-0.07033 0.08089,-0.119103 0.155212,-0.146609"
       style="fill:#79cbea;fill-opacity:1;fill-rule:evenodd;stroke:none"
       id="path2877" />
    <path
       d="m 27.326519,32.931921 4.752692,0 c -1.166717,3.849975 -2.577102,7.468942 -3.770454,11.294535 1.660959,-0.392625 3.923692,-1.478908 5.269296,-0.244141 0.312724,0.285716 0.708645,0.916855 0.672144,1.619578 -0.03321,0.572058 -0.352515,1.24321 -0.569547,1.865907 -1.017424,2.924058 -2.024326,5.927202 -3.099296,9.036005 -0.387699,1.120982 -0.751065,2.86185 -1.394929,3.43672 -1.402821,1.257276 -3.979265,0.224758 -4.028919,-1.520172 -0.02105,-0.746801 0.451165,-1.609888 0.671158,-2.260095 0.736925,-2.17413 1.514625,-4.469236 2.221627,-6.580535 -1.082205,0.04501 -2.150928,0.984689 -3.461344,0.981563 -1.394931,-0.0015 -2.710939,-1.051898 -2.427809,-2.700861 0.100953,-0.586123 0.410059,-1.233203 0.620187,-1.865905 1.382105,-4.160702 3.069699,-8.88283 4.442268,-12.91599 -0.0023,-0.08378 0.0388,-0.126604 0.102926,-0.146609"
       style="fill:#efe315;fill-opacity:1;fill-rule:evenodd;stroke:none"
       id="path2881" />
    <path
       d="m 33.991602,32.931921 c 1.568555,0.03252 3.27029,-0.06534 4.752689,0.04877 -0.616569,1.853715 -1.30976,3.874671 -1.962831,5.794657 -0.221636,0.648646 -0.372245,1.379191 -0.671487,1.914673 -1.116732,1.991261 -4.797414,1.136926 -4.33967,-1.520796 0.159486,-0.929358 0.672144,-2.005014 1.03255,-3.044096 0.37356,-1.07753 0.731993,-2.146621 1.032551,-3.046595 0.02959,-0.07033 0.08089,-0.119101 0.156198,-0.14661"
       style="fill:#79cbea;fill-opacity:1;fill-rule:evenodd;stroke:none"
       id="path2885" />
    <path
       d="m 40.758125,32.931921 4.752691,0 c -1.740538,5.309815 -3.692189,10.867211 -5.526774,16.303943 -0.443602,1.313232 -0.737254,2.847783 -2.118373,3.241345 -1.718834,0.488593 -3.252534,-0.827764 -2.995382,-2.505485 0.102597,-0.673028 0.476814,-1.393257 0.722457,-2.111299 1.614263,-4.746512 3.433723,-10.162612 5.011485,-14.781895 0.02927,-0.07033 0.08057,-0.119103 0.153896,-0.146609"
       style="fill:#79cbea;fill-opacity:1;fill-rule:evenodd;stroke:none"
       id="path2889" />
  </g>
</svg>
